<?xml version="1.0" encoding="utf-8" ?>
<svg baseProfile="full" height="100%" version="1.1" width="100%" xmlns="http://www.w3.org/2000/svg" xmlns:ev="http://www.w3.org/2001/xml-events" xmlns:xlink="http://www.w3.org/1999/xlink"><defs /><line id="tail.beam.servo.mount.beam.r2.d0.e2" stroke="#ff0000" x1="158.57007874" x2="124.894488189" y1="224.881889764" y2="224.881889764" /><line id="tail.beam.servo.mount.beam.r2.d0.e3" stroke="#ff0000" x1="124.894488189" x2="124.894488189" y1="224.881889764" y2="149.291338583" /><line id="tail.beamtab.slotedge" kerning="270" stroke="#00ff00" x1="37.7952755906" x2="37.7952755906" y1="272.125984252" y2="56.6929133858" /><line id="tail.beam.servo.mount.beam.r2.d0.e1" stroke="#ff0000" x1="158.57007874" x2="158.57007874" y1="149.291338583" y2="224.881889764" /><line id="tail.beamtab.e1" stroke="#ff0000" x1="0.0" x2="37.7952755906" y1="272.125984252" y2="272.125984252" /><line id="left.servo.mount.beam.r3.e3" kerning="90" stroke="#0000ff" x1="78.6141732283" x2="78.6141732283" y1="457.322834646" y2="272.125984252" /><line id="tail.beamtab.e3" stroke="#ff0000" x1="37.7952755906" x2="0.0" y1="56.6929133858" y2="56.6929133858" /><line id="tail.beam.servo.mount.beam.r2.d0.e0" stroke="#ff0000" x1="124.894488189" x2="158.57007874" y1="149.291338583" y2="149.291338583" /><line id="left.servo.mount.beam.r0.d0" kerning="0" stroke="#0000ff" x1="227.275590551" x2="211.905511811" y1="385.511811024" y2="385.511811024" /><line id="brain.beam.r1.d21.e3" stroke="#ff0000" x1="129.94015748" x2="133.719685039" y1="523.729133858" y2="523.729133858" /><line id="left.servo.mount.beam.r3.d3" stroke="#ff0000" x1="34.2047244094" x2="34.2047244094" y1="396.535433071" y2="332.913385827" /><line id="left.servo.mount.beam.r3.e1.se1.tab.d1" kerning="0" stroke="#0000ff" x1="270.992125984" x2="252.094488189" y1="395.590551181" y2="395.590551181" /><line id="right.servo.mount.beam.r2.e0.se1.tab.d1" stroke="#ff0000" x1="109.354330709" x2="93.9842519685" y1="14.1732283465" y2="14.1732283465" /><line id="left.servo.mount.beam.r3.e0" stroke="#ff0000" x1="6.8031496063" x2="78.6141732283" y1="457.322834646" y2="457.322834646" /><line id="left.servo.mount.beam.r3.e1.se1.tab.d5" stroke="#ff0000" x1="252.094488189" x2="252.094488189" y1="395.590551181" y2="333.858267717" /><line id="brain.beam.r1.d5.e2" stroke="#ff0000" x1="129.94015748" x2="129.94015748" y1="604.308661417" y2="600.529133858" /><line id="left.servo.mount.beam.r3.e1.se1.tab.d4" stroke="#ff0000" x1="270.992125984" x2="270.992125984" y1="395.590551181" y2="414.488188976" /><line id="brain.progcover.e0.se0.tabedge" kerning="90" stroke="#0000ff" x1="242.645669291" x2="242.645669291" y1="457.322834646" y2="619.842519685" /><line id="left.servo.mount.beam.r3.e2" stroke="#ff0000" x1="78.6141732283" x2="6.8031496063" y1="272.125984252" y2="272.125984252" /><line id="brain.beam.r1.d22.e3" stroke="#ff0000" x1="187.54015748" x2="191.319685039" y1="514.129133858" y2="514.129133858" /><line id="brain.beam.r1.d22.e2" stroke="#ff0000" x1="187.54015748" x2="187.54015748" y1="517.908661417" y2="514.129133858" /><line id="brain.beam.r1.d22.e1" stroke="#ff0000" x1="191.319685039" x2="187.54015748" y1="517.908661417" y2="517.908661417" /><line id="brain.beam.r1.d22.e0" stroke="#ff0000" x1="191.319685039" x2="191.319685039" y1="514.129133858" y2="517.908661417" /><line id="left.servo.mount.beam.r3.e1.se1.tab.d6" stroke="#ff0000" x1="270.992125984" x2="252.094488189" y1="414.488188976" y2="395.590551181" /><line id="brain.beam.r1.d19.e1" stroke="#ff0000" x1="133.719685039" x2="129.94015748" y1="537.108661417" y2="537.108661417" /><line id="brain.beam.r1.d19.e0" stroke="#ff0000" x1="133.719685039" x2="133.719685039" y1="533.329133858" y2="537.108661417" /><line id="brain.beam.r1.d5.e0" stroke="#ff0000" x1="133.719685039" x2="133.719685039" y1="600.529133858" y2="604.308661417" /><line id="brain.beam.r1.d7.e1" stroke="#ff0000" x1="133.719685039" x2="129.94015748" y1="594.708661417" y2="594.708661417" /><line id="tail.beam.servo.mount.beam.r0.e0" stroke="#ff0000" x1="71.811023622" x2="37.7952755906" y1="56.6929133858" y2="56.6929133858" /><line id="brain.beam.r1.d7.e3" stroke="#ff0000" x1="129.94015748" x2="133.719685039" y1="590.929133858" y2="590.929133858" /><line id="tail.beam.servo.mount.beam.r0.e2" stroke="#ff0000" x1="37.7952755906" x2="71.811023622" y1="272.125984252" y2="272.125984252" /><line id="tail.beamtab.slot.d2" stroke="#ff0000" x1="10.3937007874" x2="8.50393700787" y1="201.25984252" y2="201.25984252" /><line id="brain.beam.r1.d16.e3" stroke="#ff0000" x1="187.54015748" x2="191.319685039" y1="542.929133858" y2="542.929133858" /><line id="tail.beam.servo.mount.beam.r2.e3" kerning="-90" stroke="#00ff00" x1="124.724409449" x2="124.724409449" y1="56.6929133858" y2="272.125984252" /><line id="tail.beam.servo.mount.beam.r2.e2" stroke="#ff0000" x1="124.724409449" x2="158.74015748" y1="272.125984252" y2="272.125984252" /><line id="tail.beam.servo.mount.beam.r2.e0" stroke="#ff0000" x1="158.74015748" x2="124.724409449" y1="56.6929133858" y2="56.6929133858" /><line id="brain.beam.r1.d0.e0" stroke="#ff0000" x1="191.319685039" x2="191.319685039" y1="619.729133858" y2="623.508661417" /><line id="brain.beam.r1.d0.e1" stroke="#ff0000" x1="191.319685039" x2="187.54015748" y1="623.508661417" y2="623.508661417" /><line id="brain.beam.r1.d0.e2" stroke="#ff0000" x1="187.54015748" x2="187.54015748" y1="623.508661417" y2="619.729133858" /><line id="brain.beam.r1.d0.e3" stroke="#ff0000" x1="187.54015748" x2="191.319685039" y1="619.729133858" y2="619.729133858" /><line id="tail.beamtab.slot.d0" stroke="#ff0000" x1="8.50393700787" x2="10.3937007874" y1="127.559055118" y2="127.559055118" /><line id="right.servo.mount.beam.r3.e1.se1.oppedge" stroke="#ff0000" x1="40.8188976378" x2="40.8188976378" y1="642.519685039" y2="827.716535433" /><line id="left.servo.mount.beam.r3.d2" stroke="#ff0000" x1="34.2047244094" x2="36.094488189" y1="332.913385827" y2="332.913385827" /><line id="brain.progcover.e0.se1" stroke="#ff0000" x1="6.8031496063" x2="6.8031496063" y1="457.322834646" y2="619.842519685" /><line id="left.servo.mount.beam.r3.d0" stroke="#ff0000" x1="36.094488189" x2="34.2047244094" y1="396.535433071" y2="396.535433071" /><line id="tail.beamtab.slot.d1" stroke="#ff0000" x1="8.50393700787" x2="8.50393700787" y1="201.25984252" y2="127.559055118" /><line id="brain.beam.r1.d7.e0" stroke="#ff0000" x1="133.719685039" x2="133.719685039" y1="590.929133858" y2="594.708661417" /><line id="brain.beam.r0.d3" stroke="#ff0000" x1="212.850393701" x2="212.850393701" y1="605.669291339" y2="528.188976378" /><line id="left.servo.mount.beam.r3.e1.se1.tabedge" kerning="90" stroke="#0000ff" x1="242.645669291" x2="242.645669291" y1="272.125984252" y2="457.322834646" /><line id="brain.beam.r1.d6.e2" stroke="#ff0000" x1="187.54015748" x2="187.54015748" y1="594.708661417" y2="590.929133858" /><line id="brain.beam.r1.d6.e3" stroke="#ff0000" x1="187.54015748" x2="191.319685039" y1="590.929133858" y2="590.929133858" /><line id="brain.beam.r1.d6.e0" stroke="#ff0000" x1="191.319685039" x2="191.319685039" y1="590.929133858" y2="594.708661417" /><line id="brain.beam.r1.d6.e1" stroke="#ff0000" x1="191.319685039" x2="187.54015748" y1="594.708661417" y2="594.708661417" /><line id="brain.beam.r1.d23.e0" stroke="#ff0000" x1="133.719685039" x2="133.719685039" y1="514.129133858" y2="517.908661417" /><line id="brain.beam.r1.d23.e1" stroke="#ff0000" x1="133.719685039" x2="129.94015748" y1="517.908661417" y2="517.908661417" /><line id="brain.beam.r1.d23.e2" stroke="#ff0000" x1="129.94015748" x2="129.94015748" y1="517.908661417" y2="514.129133858" /><line id="brain.beam.r1.d23.e3" stroke="#ff0000" x1="129.94015748" x2="133.719685039" y1="514.129133858" y2="514.129133858" /><line id="brain.beam.r1.d4.e0" stroke="#ff0000" x1="191.319685039" x2="191.319685039" y1="600.529133858" y2="604.308661417" /><line id="brain.beam.r1.d4.e1" stroke="#ff0000" x1="191.319685039" x2="187.54015748" y1="604.308661417" y2="604.308661417" /><line id="brain.beam.r1.d4.e2" stroke="#ff0000" x1="187.54015748" x2="187.54015748" y1="604.308661417" y2="600.529133858" /><line id="brain.beam.r1.d4.e3" stroke="#ff0000" x1="187.54015748" x2="191.319685039" y1="600.529133858" y2="600.529133858" /><line id="left.servo.mount.beam.r3.e1.se1.e3" stroke="#ff0000" x1="242.645669291" x2="280.440944882" y1="457.322834646" y2="457.322834646" /><line id="left.servo.mount.beam.r3.e1.se1.e1" stroke="#ff0000" x1="280.440944882" x2="242.645669291" y1="272.125984252" y2="272.125984252" /><line id="tail.beam.servo.mount.beam.r3.e0" stroke="#ff0000" x1="211.653543307" x2="158.74015748" y1="56.6929133858" y2="56.6929133858" /><line id="brain.beam.r1.d21.e2" stroke="#ff0000" x1="129.94015748" x2="129.94015748" y1="527.508661417" y2="523.729133858" /><line id="tail.beam.servo.mount.beam.r3.e2" stroke="#ff0000" x1="158.74015748" x2="211.653543307" y1="272.125984252" y2="272.125984252" /><line id="tail.beam.servo.mount.beam.r3.e3" kerning="-90" stroke="#00ff00" x1="158.74015748" x2="158.74015748" y1="56.6929133858" y2="272.125984252" /><line id="brain.beam.r1.d11.e1" stroke="#ff0000" x1="133.719685039" x2="129.94015748" y1="575.508661417" y2="575.508661417" /><line id="brain.beam.r1.d11.e0" stroke="#ff0000" x1="133.719685039" x2="133.719685039" y1="571.729133858" y2="575.508661417" /><line id="brain.beam.r1.d11.e3" stroke="#ff0000" x1="129.94015748" x2="133.719685039" y1="571.729133858" y2="571.729133858" /><line id="brain.beam.r1.d11.e2" stroke="#ff0000" x1="129.94015748" x2="129.94015748" y1="575.508661417" y2="571.729133858" /><line id="left.servo.mount.beam.r3.d1" stroke="#ff0000" x1="36.094488189" x2="36.094488189" y1="332.913385827" y2="396.535433071" /><line id="right.servo.mount.beam.r2.e0.se1.tabedge" kerning="90" stroke="#0000ff" x1="78.6141732283" x2="124.724409449" y1="56.6929133858" y2="56.6929133858" /><line id="brain.beam.r1.e0" stroke="#ff0000" x1="124.724409449" x2="196.535433071" y1="642.519685039" y2="642.519685039" /><line id="brain.beam.r1.e3" kerning="90" stroke="#0000ff" x1="196.535433071" x2="196.535433071" y1="642.519685039" y2="457.322834646" /><line id="brain.beam.r1.e2" stroke="#ff0000" x1="196.535433071" x2="124.724409449" y1="457.322834646" y2="457.322834646" /><line id="brain.beam.r1.d1.e3" stroke="#ff0000" x1="129.94015748" x2="133.719685039" y1="619.729133858" y2="619.729133858" /><line id="brain.beam.r1.d1.e2" stroke="#ff0000" x1="129.94015748" x2="129.94015748" y1="623.508661417" y2="619.729133858" /><line id="brain.beam.r1.d1.e1" stroke="#ff0000" x1="133.719685039" x2="129.94015748" y1="623.508661417" y2="623.508661417" /><line id="brain.beam.r1.d1.e0" stroke="#ff0000" x1="133.719685039" x2="133.719685039" y1="619.729133858" y2="623.508661417" /><line id="tail.rightsplit.e1" stroke="#ff0000" x1="71.811023622" x2="78.6141732283" y1="272.125984252" y2="272.125984252" /><line id="tail.rightsplit.e0" kerning="90" stroke="#0000ff" x1="78.6141732283" x2="124.724409449" y1="272.125984252" y2="272.125984252" /><line id="brain.beam.r1.d15.e1" stroke="#ff0000" x1="133.719685039" x2="129.94015748" y1="556.308661417" y2="556.308661417" /><line id="brain.beam.r1.d13.e3" stroke="#ff0000" x1="129.94015748" x2="133.719685039" y1="562.129133858" y2="562.129133858" /><line id="brain.beam.r1.d13.e2" stroke="#ff0000" x1="129.94015748" x2="129.94015748" y1="565.908661417" y2="562.129133858" /><line id="brain.beam.r1.d13.e1" stroke="#ff0000" x1="133.719685039" x2="129.94015748" y1="565.908661417" y2="565.908661417" /><line id="brain.beam.r1.d13.e0" stroke="#ff0000" x1="133.719685039" x2="133.719685039" y1="562.129133858" y2="565.908661417" /><line id="brain.beam.r0.e0.se0" stroke="#ff0000" x1="196.535433071" x2="242.645669291" y1="642.519685039" y2="642.519685039" /><line id="brain.beam.r0.e0.se1" stroke="#ff0000" x1="242.645669291" x2="196.535433071" y1="272.125984252" y2="272.125984252" /><line id="right.servo.mount.beam.r2.e0.se1.tab.d0" stroke="#ff0000" x1="93.9842519685" x2="109.354330709" y1="42.5196850394" y2="42.5196850394" /><line id="tail.beam.servo.mount.beam.r3.d3" stroke="#ff0000" x1="202.204724409" x2="183.307086614" y1="200.31496063" y2="219.212598425" /><line id="tail.beam.servo.mount.beam.r3.d2" stroke="#ff0000" x1="183.307086614" x2="183.307086614" y1="219.212598425" y2="200.31496063" /><line id="tail.beam.servo.mount.beam.r3.d1" kerning="0" stroke="#0000ff" x1="183.307086614" x2="202.204724409" y1="128.503937008" y2="128.503937008" /><line id="tail.beam.servo.mount.beam.r3.d0" kerning="0" stroke="#0000ff" x1="183.307086614" x2="202.204724409" y1="200.31496063" y2="200.31496063" /><line id="tail.beam.servo.mount.beam.r3.d6" stroke="#ff0000" x1="183.307086614" x2="202.204724409" y1="109.606299213" y2="128.503937008" /><line id="tail.beam.servo.mount.beam.r3.d5" stroke="#ff0000" x1="202.204724409" x2="202.204724409" y1="128.503937008" y2="200.31496063" /><line id="brain.beam.r2.e3" kerning="90" stroke="#0000ff" x1="124.724409449" x2="124.724409449" y1="642.519685039" y2="457.322834646" /><line id="brain.beam.r1.d10.e2" stroke="#ff0000" x1="187.54015748" x2="187.54015748" y1="575.508661417" y2="571.729133858" /><line id="brain.beam.r1.d10.e3" stroke="#ff0000" x1="187.54015748" x2="191.319685039" y1="571.729133858" y2="571.729133858" /><line id="brain.beam.r1.d10.e0" stroke="#ff0000" x1="191.319685039" x2="191.319685039" y1="571.729133858" y2="575.508661417" /><line id="brain.beam.r1.d10.e1" stroke="#ff0000" x1="191.319685039" x2="187.54015748" y1="575.508661417" y2="575.508661417" /><line id="left.servo.mount.beam.r2.d0.e1" stroke="#ff0000" x1="78.8447244094" x2="78.8447244094" y1="438.42519685" y2="351.496062992" /><line id="right.servo.mount.beam.r3.d2" stroke="#ff0000" x1="287.05511811" x2="285.165354331" y1="766.929133858" y2="766.929133858" /><line id="left.servo.mount.beam.r2.d0.e3" stroke="#ff0000" x1="124.493858268" x2="124.493858268" y1="351.496062992" y2="438.42519685" /><line id="tail.beam.servo.mount.beam.r3.d4" stroke="#ff0000" x1="183.307086614" x2="183.307086614" y1="128.503937008" y2="109.606299213" /><line id="brain.beam.r1.d20.e0" stroke="#ff0000" x1="191.319685039" x2="191.319685039" y1="523.729133858" y2="527.508661417" /><line id="right.servo.mount.beam.r3.e1.se1.tab.d5" stroke="#ff0000" x1="69.1653543307" x2="69.1653543307" y1="704.251968504" y2="765.984251969" /><line id="right.servo.mount.beam.r3.e1.se1.tab.d4" stroke="#ff0000" x1="50.2677165354" x2="50.2677165354" y1="704.251968504" y2="685.354330709" /><line id="right.servo.mount.beam.r3.e1.se1.tab.d6" stroke="#ff0000" x1="50.2677165354" x2="69.1653543307" y1="685.354330709" y2="704.251968504" /><line id="right.servo.mount.beam.r3.e1.se1.tab.d1" kerning="0" stroke="#0000ff" x1="50.2677165354" x2="69.1653543307" y1="704.251968504" y2="704.251968504" /><line id="right.servo.mount.beam.r3.d0" stroke="#ff0000" x1="285.165354331" x2="287.05511811" y1="703.307086614" y2="703.307086614" /><line id="right.servo.mount.beam.r3.e1.se1.tab.d3" stroke="#ff0000" x1="69.1653543307" x2="50.2677165354" y1="765.984251969" y2="784.881889764" /><line id="right.servo.mount.beam.r3.e1.se1.tab.d2" stroke="#ff0000" x1="50.2677165354" x2="50.2677165354" y1="784.881889764" y2="765.984251969" /><line id="brain.beam.r1.d20.e2" stroke="#ff0000" x1="187.54015748" x2="187.54015748" y1="527.508661417" y2="523.729133858" /><line id="right.servo.mount.beam.r2.d0.e1" stroke="#ff0000" x1="242.41511811" x2="242.41511811" y1="721.88976378" y2="808.818897638" /><line id="right.servo.mount.beam.r2.d0.e0" stroke="#ff0000" x1="196.765984252" x2="242.41511811" y1="721.88976378" y2="721.88976378" /><line id="right.servo.mount.beam.r2.d0.e3" stroke="#ff0000" x1="196.765984252" x2="196.765984252" y1="808.818897638" y2="721.88976378" /><line id="right.servo.mount.beam.r2.d0.e2" stroke="#ff0000" x1="242.41511811" x2="196.765984252" y1="808.818897638" y2="808.818897638" /><line id="brain.beam.r1.d21.e0" stroke="#ff0000" x1="133.719685039" x2="133.719685039" y1="523.729133858" y2="527.508661417" /><line id="right.servo.mount.beam.r3.e1.se1.tabedge" kerning="90" stroke="#0000ff" x1="78.6141732283" x2="78.6141732283" y1="827.716535433" y2="642.519685039" /><line id="brain.beam.r1.d12.e0" stroke="#ff0000" x1="191.319685039" x2="191.319685039" y1="562.129133858" y2="565.908661417" /><line id="brain.beam.r1.d12.e1" stroke="#ff0000" x1="191.319685039" x2="187.54015748" y1="565.908661417" y2="565.908661417" /><line id="brain.beam.r1.d12.e2" stroke="#ff0000" x1="187.54015748" x2="187.54015748" y1="565.908661417" y2="562.129133858" /><line id="brain.beam.r1.d12.e3" stroke="#ff0000" x1="187.54015748" x2="191.319685039" y1="562.129133858" y2="562.129133858" /><line id="tail.beamtab.oppedge" stroke="#ff0000" x1="0.0" x2="0.0" y1="56.6929133858" y2="272.125984252" /><line id="brain.slotsplit.e3" stroke="#ff0000" x1="242.645669291" x2="242.645669291" y1="642.519685039" y2="619.842519685" /><line id="brain.beam.r2.d3" stroke="#ff0000" x1="108.409448819" x2="108.409448819" y1="494.173228346" y2="571.653543307" /><line id="brain.beam.r2.d2" stroke="#ff0000" x1="108.409448819" x2="110.299212598" y1="571.653543307" y2="571.653543307" /><line id="brain.beam.r2.d1" stroke="#ff0000" x1="110.299212598" x2="110.299212598" y1="571.653543307" y2="494.173228346" /><line id="brain.beam.r2.d0" stroke="#ff0000" x1="110.299212598" x2="108.409448819" y1="494.173228346" y2="494.173228346" /><line id="tail.beamtab.slot.d3" stroke="#ff0000" x1="10.3937007874" x2="10.3937007874" y1="127.559055118" y2="201.25984252" /><line id="brain.progcover.e0.se0.e3" stroke="#ff0000" x1="242.645669291" x2="280.440944882" y1="619.842519685" y2="619.842519685" /><line id="brain.progcover.e0.se0.e1" stroke="#ff0000" x1="280.440944882" x2="242.645669291" y1="457.322834646" y2="457.322834646" /><line id="right.servo.mount.beam.r2.e0.se1.tab.d2" stroke="#ff0000" x1="109.354330709" x2="109.354330709" y1="42.5196850394" y2="14.1732283465" /><line id="left.servo.mount.beam.r2.d0.e0" stroke="#ff0000" x1="124.493858268" x2="78.8447244094" y1="438.42519685" y2="438.42519685" /><line id="brain.beam.r1.d8.e0" stroke="#ff0000" x1="191.319685039" x2="191.319685039" y1="581.329133858" y2="585.108661417" /><line id="brain.beam.r1.d8.e1" stroke="#ff0000" x1="191.319685039" x2="187.54015748" y1="585.108661417" y2="585.108661417" /><line id="brain.beam.r1.d8.e2" stroke="#ff0000" x1="187.54015748" x2="187.54015748" y1="585.108661417" y2="581.329133858" /><line id="brain.beam.r1.d8.e3" stroke="#ff0000" x1="187.54015748" x2="191.319685039" y1="581.329133858" y2="581.329133858" /><line id="left.servo.mount.beam.r3.e1.se1.tab.d0" kerning="0" stroke="#0000ff" x1="270.992125984" x2="252.094488189" y1="333.858267717" y2="333.858267717" /><line id="left.servo.mount.beam.r2.d0.e2" stroke="#ff0000" x1="78.8447244094" x2="124.493858268" y1="351.496062992" y2="351.496062992" /><line id="right.servo.mount.beam.r2.e0.se1.e1" stroke="#ff0000" x1="78.6141732283" x2="78.6141732283" y1="0.0" y2="56.6929133858" /><line id="right.servo.mount.beam.r3.d3" stroke="#ff0000" x1="287.05511811" x2="287.05511811" y1="703.307086614" y2="766.929133858" /><line id="right.servo.mount.beam.r2.e0.se1.e3" stroke="#ff0000" x1="124.724409449" x2="124.724409449" y1="56.6929133858" y2="0.0" /><line id="right.servo.mount.beam.r3.d1" stroke="#ff0000" x1="285.165354331" x2="285.165354331" y1="766.929133858" y2="703.307086614" /><line id="left.servo.mount.beam.r0.d6" stroke="#ff0000" x1="227.275590551" x2="211.905511811" y1="309.921259843" y2="294.551181102" /><line id="left.servo.mount.beam.r0.d5" stroke="#ff0000" x1="227.275590551" x2="227.275590551" y1="385.511811024" y2="309.921259843" /><line id="left.servo.mount.beam.r0.d4" stroke="#ff0000" x1="211.905511811" x2="211.905511811" y1="294.551181102" y2="309.921259843" /><line id="left.servo.mount.beam.r0.d3" stroke="#ff0000" x1="211.905511811" x2="227.275590551" y1="400.881889764" y2="385.511811024" /><line id="brain.beam.r1.d20.e3" stroke="#ff0000" x1="187.54015748" x2="191.319685039" y1="523.729133858" y2="523.729133858" /><line id="left.servo.mount.beam.r0.d1" kerning="0" stroke="#0000ff" x1="227.275590551" x2="211.905511811" y1="309.921259843" y2="309.921259843" /><line id="brain.beam.r1.d19.e2" stroke="#ff0000" x1="129.94015748" x2="129.94015748" y1="537.108661417" y2="533.329133858" /><line id="tail.beam.servo.mount.beam.r1.e3" kerning="-90" stroke="#00ff00" x1="71.811023622" x2="71.811023622" y1="56.6929133858" y2="272.125984252" /><line id="left.servo.mount.beam.r0.d2" stroke="#ff0000" x1="211.905511811" x2="211.905511811" y1="385.511811024" y2="400.881889764" /><line id="brain.beam.r1.d21.e1" stroke="#ff0000" x1="133.719685039" x2="129.94015748" y1="527.508661417" y2="527.508661417" /><line id="brain.progcover.e2" kerning="90" stroke="#0000ff" x1="78.6141732283" x2="78.6141732283" y1="619.842519685" y2="457.322834646" /><line id="brain.progcover.e3" stroke="#ff0000" x1="6.8031496063" x2="78.6141732283" y1="619.842519685" y2="619.842519685" /><line id="left.servo.mount.beam.r3.e1.se1.tab.d3" stroke="#ff0000" x1="252.094488189" x2="270.992125984" y1="333.858267717" y2="314.960629921" /><line id="brain.progcover.e1" stroke="#ff0000" x1="78.6141732283" x2="6.8031496063" y1="457.322834646" y2="457.322834646" /><line id="right.servo.mount.beam.r2.e2" stroke="#ff0000" x1="196.535433071" x2="242.645669291" y1="827.716535433" y2="827.716535433" /><line id="right.servo.mount.beam.r2.e3" kerning="90" stroke="#0000ff" x1="196.535433071" x2="196.535433071" y1="642.519685039" y2="827.716535433" /><line id="brain.beam.r1.d15.e3" stroke="#ff0000" x1="129.94015748" x2="133.719685039" y1="552.529133858" y2="552.529133858" /><line id="brain.beam.r1.d15.e2" stroke="#ff0000" x1="129.94015748" x2="129.94015748" y1="556.308661417" y2="552.529133858" /><line id="brain.beam.r1.d17.e3" stroke="#ff0000" x1="129.94015748" x2="133.719685039" y1="542.929133858" y2="542.929133858" /><line id="brain.beam.r1.d17.e2" stroke="#ff0000" x1="129.94015748" x2="129.94015748" y1="546.708661417" y2="542.929133858" /><line id="brain.beam.r1.d17.e1" stroke="#ff0000" x1="133.719685039" x2="129.94015748" y1="546.708661417" y2="546.708661417" /><line id="brain.beam.r1.d17.e0" stroke="#ff0000" x1="133.719685039" x2="133.719685039" y1="542.929133858" y2="546.708661417" /><line id="right.servo.mount.beam.r0.e0" kerning="180.1" stroke="#00ff00" x1="124.724409449" x2="78.6141732283" y1="642.519685039" y2="642.519685039" /><line id="right.servo.mount.beam.r3.e1.se1.tab.d0" kerning="0" stroke="#0000ff" x1="50.2677165354" x2="69.1653543307" y1="765.984251969" y2="765.984251969" /><line id="right.servo.mount.beam.r3.e0" stroke="#ff0000" x1="314.456692913" x2="242.645669291" y1="642.519685039" y2="642.519685039" /><line id="right.servo.mount.beam.r3.e3" kerning="90" stroke="#0000ff" x1="242.645669291" x2="242.645669291" y1="642.519685039" y2="827.716535433" /><line id="right.servo.mount.beam.r3.e2" stroke="#ff0000" x1="242.645669291" x2="314.456692913" y1="827.716535433" y2="827.716535433" /><line id="brain.beam.r0.d1" stroke="#ff0000" x1="210.960629921" x2="210.960629921" y1="528.188976378" y2="605.669291339" /><line id="brain.beam.r0.d0" stroke="#ff0000" x1="210.960629921" x2="212.850393701" y1="605.669291339" y2="605.669291339" /><line id="right.servo.mount.beam.r3.e1.se0" stroke="#ff0000" x1="314.456692913" x2="314.456692913" y1="827.716535433" y2="642.519685039" /><line id="brain.beam.r0.d2" stroke="#ff0000" x1="212.850393701" x2="210.960629921" y1="528.188976378" y2="528.188976378" /><line id="brain.progcover.r.d3" stroke="#ff0000" x1="34.2047244094" x2="34.2047244094" y1="566.614173228" y2="510.551181102" /><line id="brain.progcover.r.d2" stroke="#ff0000" x1="34.2047244094" x2="36.094488189" y1="510.551181102" y2="510.551181102" /><line id="brain.progcover.r.d1" stroke="#ff0000" x1="36.094488189" x2="36.094488189" y1="510.551181102" y2="566.614173228" /><line id="brain.progcover.r.d0" stroke="#ff0000" x1="36.094488189" x2="34.2047244094" y1="566.614173228" y2="566.614173228" /><line id="left.servo.mount.beam.r0.e0" kerning="180.1" stroke="#00ff00" x1="196.535433071" x2="242.645669291" y1="457.322834646" y2="457.322834646" /><line id="right.servo.mount.beam.r1.e3" kerning="90" stroke="#0000ff" x1="124.724409449" x2="124.724409449" y1="642.519685039" y2="827.716535433" /><line id="right.servo.mount.beam.r1.e2" stroke="#ff0000" x1="124.724409449" x2="196.535433071" y1="827.716535433" y2="827.716535433" /><line id="right.servo.mount.beam.r1.e0" stroke="#ff0000" x1="196.535433071" x2="124.724409449" y1="642.519685039" y2="642.519685039" /><line id="left.servo.mount.beam.r2.e3" kerning="90" stroke="#0000ff" x1="124.724409449" x2="124.724409449" y1="457.322834646" y2="272.125984252" /><line id="left.servo.mount.beam.r2.e0" stroke="#ff0000" x1="78.6141732283" x2="124.724409449" y1="457.322834646" y2="457.322834646" /><line id="right.servo.mount.beam.r2.d4" stroke="#ff0000" x1="226.330708661" x2="226.330708661" y1="655.748031496" y2="685.984251969" /><line id="right.servo.mount.beam.r2.d1" stroke="#ff0000" x1="228.220472441" x2="226.330708661" y1="655.748031496" y2="655.748031496" /><line id="right.servo.mount.beam.r2.d3" stroke="#ff0000" x1="226.330708661" x2="228.220472441" y1="685.984251969" y2="685.984251969" /><line id="right.servo.mount.beam.r2.d2" stroke="#ff0000" x1="228.220472441" x2="228.220472441" y1="685.984251969" y2="655.748031496" /><line id="brain.progcover.e0.se0.tab.d1" kerning="0" stroke="#0000ff" x1="270.992125984" x2="252.094488189" y1="565.669291339" y2="565.669291339" /><line id="brain.beam.r1.d19.e3" stroke="#ff0000" x1="129.94015748" x2="133.719685039" y1="533.329133858" y2="533.329133858" /><line id="right.servo.mount.beam.r0.d6" stroke="#ff0000" x1="93.9842519685" x2="109.354330709" y1="789.921259843" y2="805.291338583" /><line id="right.servo.mount.beam.r0.d5" stroke="#ff0000" x1="93.9842519685" x2="93.9842519685" y1="714.330708661" y2="789.921259843" /><line id="right.servo.mount.beam.r0.d4" stroke="#ff0000" x1="109.354330709" x2="109.354330709" y1="805.291338583" y2="789.921259843" /><line id="brain.beam.r2.e2.se0" stroke="#ff0000" x1="124.724409449" x2="78.6141732283" y1="457.322834646" y2="457.322834646" /><line id="brain.beam.r2.e2.se1" stroke="#ff0000" x1="78.6141732283" x2="124.724409449" y1="827.716535433" y2="827.716535433" /><line id="right.servo.mount.beam.r0.d1" kerning="0" stroke="#0000ff" x1="93.9842519685" x2="109.354330709" y1="789.921259843" y2="789.921259843" /><line id="right.servo.mount.beam.r0.d0" kerning="0" stroke="#0000ff" x1="93.9842519685" x2="109.354330709" y1="714.330708661" y2="714.330708661" /><line id="brain.beam.r1.d14.e2" stroke="#ff0000" x1="187.54015748" x2="187.54015748" y1="556.308661417" y2="552.529133858" /><line id="brain.beam.r1.d14.e3" stroke="#ff0000" x1="187.54015748" x2="191.319685039" y1="552.529133858" y2="552.529133858" /><line id="brain.beam.r1.d14.e0" stroke="#ff0000" x1="191.319685039" x2="191.319685039" y1="552.529133858" y2="556.308661417" /><line id="brain.beam.r1.d14.e1" stroke="#ff0000" x1="191.319685039" x2="187.54015748" y1="556.308661417" y2="556.308661417" /><line id="brain.beam.r1.d9.e3" stroke="#ff0000" x1="129.94015748" x2="133.719685039" y1="581.329133858" y2="581.329133858" /><line id="brain.beam.r1.d9.e2" stroke="#ff0000" x1="129.94015748" x2="129.94015748" y1="585.108661417" y2="581.329133858" /><line id="brain.beam.r1.d9.e1" stroke="#ff0000" x1="133.719685039" x2="129.94015748" y1="585.108661417" y2="585.108661417" /><line id="brain.beam.r1.d9.e0" stroke="#ff0000" x1="133.719685039" x2="133.719685039" y1="581.329133858" y2="585.108661417" /><line id="brain.beam.r1.d2.e2" stroke="#ff0000" x1="187.54015748" x2="187.54015748" y1="613.908661417" y2="610.129133858" /><line id="right.servo.mount.beam.r0.d3" stroke="#ff0000" x1="109.354330709" x2="93.9842519685" y1="698.960629921" y2="714.330708661" /><line id="brain.beam.r1.d2.e0" stroke="#ff0000" x1="191.319685039" x2="191.319685039" y1="610.129133858" y2="613.908661417" /><line id="brain.beam.r1.d2.e1" stroke="#ff0000" x1="191.319685039" x2="187.54015748" y1="613.908661417" y2="613.908661417" /><line id="right.servo.mount.beam.r3.e1.se1.e3" stroke="#ff0000" x1="78.6141732283" x2="40.8188976378" y1="642.519685039" y2="642.519685039" /><line id="right.servo.mount.beam.r3.e1.se1.e1" stroke="#ff0000" x1="40.8188976378" x2="78.6141732283" y1="827.716535433" y2="827.716535433" /><line id="right.servo.mount.beam.r0.d2" stroke="#ff0000" x1="109.354330709" x2="109.354330709" y1="714.330708661" y2="698.960629921" /><line id="left.servo.mount.beam.r1.e3" kerning="90" stroke="#0000ff" x1="196.535433071" x2="196.535433071" y1="457.322834646" y2="272.125984252" /><line id="left.servo.mount.beam.r1.e2" stroke="#ff0000" x1="196.535433071" x2="124.724409449" y1="272.125984252" y2="272.125984252" /><line id="left.servo.mount.beam.r1.e0" stroke="#ff0000" x1="124.724409449" x2="196.535433071" y1="457.322834646" y2="457.322834646" /><line id="brain.beam.r1.d16.e0" stroke="#ff0000" x1="191.319685039" x2="191.319685039" y1="542.929133858" y2="546.708661417" /><line id="brain.beam.r1.d16.e1" stroke="#ff0000" x1="191.319685039" x2="187.54015748" y1="546.708661417" y2="546.708661417" /><line id="brain.beam.r1.d16.e2" stroke="#ff0000" x1="187.54015748" x2="187.54015748" y1="546.708661417" y2="542.929133858" /><line id="brain.beam.r1.d15.e0" stroke="#ff0000" x1="133.719685039" x2="133.719685039" y1="552.529133858" y2="556.308661417" /><line id="left.servo.mount.beam.r3.e1.se0" stroke="#ff0000" x1="6.8031496063" x2="6.8031496063" y1="272.125984252" y2="457.322834646" /><line id="left.servo.mount.beam.r3.e1.se1.oppedge" stroke="#ff0000" x1="280.440944882" x2="280.440944882" y1="457.322834646" y2="272.125984252" /><line id="brain.tabsplit.e2" stroke="#ff0000" x1="78.6141732283" x2="78.6141732283" y1="619.842519685" y2="642.519685039" /><line id="tail.tail.e3" stroke="#ff0000" x1="249.070866142" x2="211.653543307" y1="56.6929133858" y2="56.6929133858" /><line id="tail.tail.e1" stroke="#ff0000" x1="211.653543307" x2="249.070866142" y1="272.125984252" y2="272.125984252" /><line id="tail.tail.e0" stroke="#ff0000" x1="249.070866142" x2="249.070866142" y1="272.125984252" y2="56.6929133858" /><line id="right.servo.mount.beam.r2.e0.se0" stroke="#ff0000" x1="242.645669291" x2="196.535433071" y1="642.519685039" y2="642.519685039" /><line id="left.servo.mount.beam.r3.e1.se1.tab.d2" stroke="#ff0000" x1="270.992125984" x2="270.992125984" y1="314.960629921" y2="333.858267717" /><line id="tail.leftsplit.e0" stroke="#ff0000" x1="78.6141732283" x2="71.811023622" y1="56.6929133858" y2="56.6929133858" /><line id="brain.beam.r1.d5.e3" stroke="#ff0000" x1="129.94015748" x2="133.719685039" y1="600.529133858" y2="600.529133858" /><line id="right.servo.mount.beam.r2.e0.se1.oppedge" stroke="#ff0000" x1="124.724409449" x2="78.6141732283" y1="0.0" y2="0.0" /><line id="brain.progcover.e0.se0.tab.d4" stroke="#ff0000" x1="270.992125984" x2="270.992125984" y1="565.669291339" y2="584.566929134" /><line id="brain.progcover.e0.se0.tab.d5" stroke="#ff0000" x1="252.094488189" x2="252.094488189" y1="565.669291339" y2="511.496062992" /><line id="brain.progcover.e0.se0.tab.d6" stroke="#ff0000" x1="270.992125984" x2="252.094488189" y1="584.566929134" y2="565.669291339" /><line id="brain.progcover.e0.se0.tab.d0" kerning="0" stroke="#0000ff" x1="270.992125984" x2="252.094488189" y1="511.496062992" y2="511.496062992" /><line id="brain.beam.r1.d5.e1" stroke="#ff0000" x1="133.719685039" x2="129.94015748" y1="604.308661417" y2="604.308661417" /><line id="brain.progcover.e0.se0.tab.d2" stroke="#ff0000" x1="270.992125984" x2="270.992125984" y1="492.598425197" y2="511.496062992" /><line id="brain.progcover.e0.se0.tab.d3" stroke="#ff0000" x1="252.094488189" x2="270.992125984" y1="511.496062992" y2="492.598425197" /><line id="brain.beam.r1.d3.e1" stroke="#ff0000" x1="133.719685039" x2="129.94015748" y1="613.908661417" y2="613.908661417" /><line id="brain.beam.r1.d3.e0" stroke="#ff0000" x1="133.719685039" x2="133.719685039" y1="610.129133858" y2="613.908661417" /><line id="brain.beam.r1.d3.e3" stroke="#ff0000" x1="129.94015748" x2="133.719685039" y1="610.129133858" y2="610.129133858" /><line id="brain.beam.r1.d3.e2" stroke="#ff0000" x1="129.94015748" x2="129.94015748" y1="613.908661417" y2="610.129133858" /><line id="brain.beam.r1.d7.e2" stroke="#ff0000" x1="129.94015748" x2="129.94015748" y1="594.708661417" y2="590.929133858" /><line id="brain.progcover.e0.se0.oppedge" stroke="#ff0000" x1="280.440944882" x2="280.440944882" y1="619.842519685" y2="457.322834646" /><line id="brain.beam.r1.d2.e3" stroke="#ff0000" x1="187.54015748" x2="191.319685039" y1="610.129133858" y2="610.129133858" /><line id="brain.beam.r1.d20.e1" stroke="#ff0000" x1="191.319685039" x2="187.54015748" y1="527.508661417" y2="527.508661417" /><line id="brain.beam.r1.d18.e2" stroke="#ff0000" x1="187.54015748" x2="187.54015748" y1="537.108661417" y2="533.329133858" /><line id="brain.beam.r1.d18.e3" stroke="#ff0000" x1="187.54015748" x2="191.319685039" y1="533.329133858" y2="533.329133858" /><line id="brain.beam.r1.d18.e0" stroke="#ff0000" x1="191.319685039" x2="191.319685039" y1="533.329133858" y2="537.108661417" /><line id="brain.beam.r1.d18.e1" stroke="#ff0000" x1="191.319685039" x2="187.54015748" y1="537.108661417" y2="537.108661417" /></svg>